<?xml version="1.0" encoding="utf-8"?>
<svg xmlns="http://www.w3.org/2000/svg" xmlns:xlink="http://www.w3.org/1999/xlink" style="margin: auto; background: rgb(255, 255, 255); display: block; shape-rendering: auto;" width="200px" height="200px" viewBox="0 0 100 100" preserveAspectRatio="xMidYMid">
<g transform="translate(50 50)">
<g transform="rotate(47.4169)">
<animateTransform attributeName="transform" type="rotate" values="0;51.42857142857143" keyTimes="0;1" dur="0.2s" repeatCount="indefinite"></animateTransform><path d="M29.491524206117255 -5.5 L37.491524206117255 -5.5 L37.491524206117255 5.5 L29.491524206117255 5.5 A30 30 0 0 1 22.687737737358255 19.628208180087405 L22.687737737358255 19.628208180087405 L27.67565615222812 25.882860039831645 L19.075509845079797 32.74124786027771 L14.087591430209928 26.486596000533474 A30 30 0 0 1 -1.2003779931404346 29.97597525808934 L-1.2003779931404346 29.97597525808934 L-2.9805454647909495 37.77539855554393 L-13.704752498791008 35.32766828202447 L-11.924585027140493 27.52824498456988 A30 30 0 0 1 -24.184584611555678 17.75122156828944 L-24.184584611555678 17.75122156828944 L-31.39233555477503 21.222291481229906 L-36.16505668506818 11.311633934303288 L-28.957305741848824 7.840564021362822 A30 30 0 0 1 -28.957305741848828 -7.840564021362815 L-28.957305741848828 -7.840564021362815 L-36.16505668506818 -11.311633934303279 L-31.392335554775034 -21.2222914812299 L-24.18458461155568 -17.751221568289434 A30 30 0 0 1 -11.924585027140505 -27.528244984569877 L-11.924585027140505 -27.528244984569877 L-13.704752498791022 -35.32766828202446 L-2.9805454647909517 -37.77539855554393 L-1.2003779931404353 -29.97597525808934 A30 30 0 0 1 14.087591430209917 -26.48659600053348 L14.087591430209917 -26.48659600053348 L19.075509845079786 -32.741247860277724 L27.67565615222812 -25.882860039831645 L22.687737737358255 -19.628208180087405 A30 30 0 0 1 29.491524206117255 -5.500000000000013 M0 -20A20 20 0 1 0 0 20 A20 20 0 1 0 0 -20" fill="#eee5b5"></path></g></g>
</svg>
